<?xml version="1.0" encoding="utf-8"?>
<!-- Generator: Adobe Illustrator 24.1.2, SVG Export Plug-In . SVG Version: 6.00 Build 0)  -->
<svg version="1.1" id="Layer_1" xmlns="http://www.w3.org/2000/svg" xmlns:xlink="http://www.w3.org/1999/xlink" x="0px" y="0px"
	 viewBox="0 0 500 176" style="enable-background:new 0 0 500 176;" xml:space="preserve">
<style type="text/css">
	.st0{fill:url(#SVGID_1_);}
	.st1{fill:url(#SVGID_2_);}
	.st2{fill:url(#SVGID_3_);}
	.st3{fill:url(#SVGID_4_);}
	.st4{fill:url(#SVGID_5_);}
	.st5{fill:url(#SVGID_6_);}
	.st6{fill:url(#SVGID_7_);}
	.st7{fill:url(#SVGID_8_);}
	.st8{enable-background:new    ;}
	.st9{fill:url(#SVGID_9_);}
	.st10{fill:url(#SVGID_10_);}
	.st11{fill:url(#SVGID_11_);}
	.st12{fill:url(#SVGID_12_);}
	.st13{fill:url(#SVGID_13_);}
	.st14{fill:url(#SVGID_14_);}
	.st15{fill:url(#SVGID_15_);}
	.st16{fill:url(#SVGID_16_);}
	.st17{fill:url(#SVGID_17_);}
	.st18{fill:url(#SVGID_18_);}
</style>
<g>
	<g id="OBJECTS">
		<g>
			
				<linearGradient id="SVGID_1_" gradientUnits="userSpaceOnUse" x1="17.9097" y1="-248.2347" x2="330.751" y2="-248.2347" gradientTransform="matrix(0.9998 1.820000e-02 1.820000e-02 -0.9998 -6.1276 -194.9079)">
				<stop  offset="0" style="stop-color:#5CB8FF"/>
				<stop  offset="1" style="stop-color:#2F2569"/>
			</linearGradient>
			<path class="st0" d="M320.6,28.5c-4.6,26-39.8,37.7-85.1,42.9c-87.9,10-214-4.5-228.8,13C21.8,63.8,75.1,59.7,133.8,58h0.2
				C213.2,55.4,302.2,57.3,320.6,28.5z"/>
			
				<linearGradient id="SVGID_2_" gradientUnits="userSpaceOnUse" x1="279.0793" y1="-234.6752" x2="489.2979" y2="-274.3185" gradientTransform="matrix(0.9998 1.820000e-02 1.820000e-02 -0.9998 -6.1276 -194.9079)">
				<stop  offset="0" style="stop-color:#5CB8FF"/>
				<stop  offset="1" style="stop-color:#2F2569"/>
			</linearGradient>
			<path class="st1" d="M494.4,53.7c-76.6,19.5-143.1-39.4-258-29.7c-28.8,2.4-120.8,34.4-120.8,34.4
				C138.3,44.6,217.5,18.2,236.1,16c16.7-2,81.4-11.9,158.6,10.8l0,0c6.7,2,13.4,4.1,20.3,6.7C464.1,51.3,494.4,53.7,494.4,53.7z"/>
			
				<linearGradient id="SVGID_3_" gradientUnits="userSpaceOnUse" x1="366.2159" y1="-256.7818" x2="500.5424" y2="-246.8405" gradientTransform="matrix(0.9998 1.820000e-02 1.820000e-02 -0.9998 -6.1276 -194.9079)">
				<stop  offset="0" style="stop-color:#5CB8FF"/>
				<stop  offset="1" style="stop-color:#2F2569"/>
			</linearGradient>
			<path class="st2" d="M494.4,53.7C464.5,87.6,392,74,330.8,71.6c-19-0.7-37-0.4-52.2,2.8c55-25.5,114.7-17.7,158.6-14.3l0,0
				C463.2,62.1,483.6,62.7,494.4,53.7z"/>
			
				<linearGradient id="SVGID_4_" gradientUnits="userSpaceOnUse" x1="40.0548" y1="-278.8158" x2="41.773" y2="-292.5616" gradientTransform="matrix(0.9998 1.820000e-02 1.820000e-02 -0.9998 -6.1276 -194.9079)">
				<stop  offset="0" style="stop-color:#FFFFFF"/>
				<stop  offset="1" style="stop-color:#686869"/>
			</linearGradient>
			<path class="st3" d="M56.9,83.5c-4.8,13.6-22.1,13.6-36.1,13.2c-8.6-0.2-16-0.4-18.6,2.2C5.5,85.9,26,82.5,41,82.4
				C48.5,82.4,54.6,82.9,56.9,83.5z"/>
			
				<linearGradient id="SVGID_5_" gradientUnits="userSpaceOnUse" x1="144.7088" y1="-239.7704" x2="330.751" y2="-239.7704" gradientTransform="matrix(0.9998 1.820000e-02 1.820000e-02 -0.9998 -6.1276 -194.9079)">
				<stop  offset="0" style="stop-color:#5CB8FF"/>
				<stop  offset="1" style="stop-color:#2F2569"/>
			</linearGradient>
			<path class="st4" d="M320.6,28.5c-4.6,26-39.8,37.7-85.1,42.9c-35.7,1.7-49.3-14.7-101.5-13.6C213.2,55.4,302.2,57.3,320.6,28.5z
				"/>
			
				<linearGradient id="SVGID_6_" gradientUnits="userSpaceOnUse" x1="126.1221" y1="-226.3775" x2="404.5103" y2="-226.3775" gradientTransform="matrix(0.9998 1.820000e-02 1.820000e-02 -0.9998 -6.1276 -194.9079)">
				<stop  offset="0" style="stop-color:#5CB8FF"/>
				<stop  offset="1" style="stop-color:#2F2569"/>
			</linearGradient>
			<path class="st5" d="M394.4,26.8c-48.7-7.6-90.9-14.3-158.2-2.8c-28.8,2.4-120.8,34.4-120.8,34.4C138.1,44.6,217.3,18.2,235.9,16
				C252.6,14.2,317.5,4.3,394.4,26.8z"/>
			
				<linearGradient id="SVGID_7_" gradientUnits="userSpaceOnUse" x1="353.4988" y1="-252.7896" x2="440.0593" y2="-269.1134" gradientTransform="matrix(0.9998 1.820000e-02 1.820000e-02 -0.9998 -6.1276 -194.9079)">
				<stop  offset="0" style="stop-color:#5CB8FF"/>
				<stop  offset="1" style="stop-color:#2F2569"/>
			</linearGradient>
			<path class="st6" d="M437.4,60.3c-36.4-0.7-47.2,12.6-106.5,11.5l0,0c-19-0.7-37-0.4-52.2,2.8C333.8,48.9,393.3,56.7,437.4,60.3z
				"/>
			
				<linearGradient id="SVGID_8_" gradientUnits="userSpaceOnUse" x1="434.9564" y1="-331.5188" x2="480.9624" y2="-331.5188" gradientTransform="matrix(0.9998 -2.160000e-02 -2.160000e-02 -0.9998 6.7488 -245.2577)">
				<stop  offset="0" style="stop-color:#FF8778"/>
				<stop  offset="1" style="stop-color:#9C122B"/>
			</linearGradient>
			<path class="st7" d="M448.9,82.4c31.4-3.9,44.8-17.1,44.8-17.1C497.6,81.1,491.6,93.7,448.9,82.4z"/>
		</g>
	</g>
	<g id="TEXTS">
		<g>
			<g>
				<g>
					<g class="st8">
						<linearGradient id="SVGID_9_" gradientUnits="userSpaceOnUse" x1="47.15" y1="163.4" x2="47.15" y2="117.5">
							<stop  offset="0" style="stop-color:#5CB8FF"/>
							<stop  offset="1" style="stop-color:#35387C"/>
						</linearGradient>
						<path class="st9" d="M25.1,121.2v-3.7h11v4.6H35L25.1,121.2z M37.1,157.8l10,1.1v3.7h-22V159l10-1.1h2V157.8z M30.3,138.7
							c0-7.1,0-14.1-0.2-21.2h11.7c-0.2,7.1-0.2,13.9-0.2,21.4v2c0,7.2,0,14.5,0.2,21.6H30.1c0.2-6.9,0.2-14.1,0.2-21.2
							C30.3,141.3,30.3,138.7,30.3,138.7z M36.2,138h8c6.9,0,8.9-3.9,8.9-8.4c0-5.6-3-8.2-8.6-8.2H36v-3.9h11.3
							c10.8,0,16.7,4.3,16.7,11.3c0,5.2-3.9,10.6-16,11.3v-0.7c10.8,0.4,13.6,3.9,14.7,11.2l1.9,10.6l-5.6-3.5l10.2,1.1v3.7
							c-3.3,0.7-4.3,0.9-7.4,0.9c-5.8,0-9.3-1.7-10-7.1l-1.3-8c-0.7-4.6-2.4-6.7-6.5-6.7h-8V138H36.2z"/>
						<linearGradient id="SVGID_10_" gradientUnits="userSpaceOnUse" x1="99.05" y1="163.8" x2="99.05" y2="116.2">
							<stop  offset="0" style="stop-color:#5CB8FF"/>
							<stop  offset="1" style="stop-color:#35387C"/>
						</linearGradient>
						<path class="st10" d="M120.8,140c0,15.8-10.4,23.8-21.7,23.8S77.3,156,77.3,140c0-15.8,10.6-23.8,21.7-23.8
							S120.8,124,120.8,140z M98.9,159.9c6.9,0,9.7-8.6,9.7-19.9s-2.8-19.9-9.7-19.9c-6.9,0-9.7,8.6-9.7,19.9
							C89.4,151.3,92,159.9,98.9,159.9z"/>
						<linearGradient id="SVGID_11_" gradientUnits="userSpaceOnUse" x1="148.55" y1="162.5" x2="148.55" y2="117.5">
							<stop  offset="0" style="stop-color:#5CB8FF"/>
							<stop  offset="1" style="stop-color:#35387C"/>
						</linearGradient>
						<path class="st11" d="M130.5,121.2v-3.7h22.7v3.7l-10.2,1.1h-2.6L130.5,121.2z M141.4,157.8v4.6h-11v-3.7l10-1.1h0.9v0.2
							H141.4z M135.5,117.5h11.9c-0.2,6.9-0.2,14.1-0.2,21.2v3.5c0,5.9,0,13.2,0.2,20.3h-11.9c0.2-6.9,0.2-14.1,0.2-19.9v-3.9
							C135.7,131.6,135.7,124.6,135.5,117.5z M166.7,149.1l-0.7,13.4h-24.5v-3.9h22.1l-5.2,3.9l2.6-13.4H166.7z"/>
						<linearGradient id="SVGID_12_" gradientUnits="userSpaceOnUse" x1="193.4" y1="162.5" x2="193.4" y2="117.5">
							<stop  offset="0" style="stop-color:#5CB8FF"/>
							<stop  offset="1" style="stop-color:#35387C"/>
						</linearGradient>
						<path class="st12" d="M175.3,121.2v-3.7H198v3.7l-10.2,1.1h-2.6L175.3,121.2z M186.4,157.8v4.6h-11v-3.7l10-1.1h0.9v0.2H186.4
							z M180.5,117.5h11.9c-0.2,6.9-0.2,14.1-0.2,21.2v3.5c0,5.9,0,13.2,0.2,20.3h-11.9c0.2-6.9,0.2-14.1,0.2-19.9v-3.9
							C180.6,131.6,180.6,124.6,180.5,117.5z M211.5,149.1l-0.7,13.4h-24.5v-3.9h22.1l-5.2,3.9l2.6-13.4H211.5z"/>
						<linearGradient id="SVGID_13_" gradientUnits="userSpaceOnUse" x1="242.25" y1="163.4" x2="242.25" y2="117.5">
							<stop  offset="0" style="stop-color:#5CB8FF"/>
							<stop  offset="1" style="stop-color:#35387C"/>
						</linearGradient>
						<path class="st13" d="M220.2,121.2v-3.7h11v4.6h-1.1L220.2,121.2z M232.3,157.8l10,1.1v3.7h-22.1V159l10-1.1h2.1V157.8z
							 M225.6,138.7c0-7.1,0-14.1-0.2-21.2h11.7c-0.2,7.1-0.2,13.9-0.2,21.4v2c0,7.2,0,14.5,0.2,21.6h-11.7
							c0.2-6.9,0.2-14.1,0.2-21.2V138.7z M231.4,138h8c6.9,0,8.9-3.9,8.9-8.4c0-5.6-3-8.2-8.6-8.2h-8.6v-3.9h11.3
							c10.8,0,16.7,4.3,16.7,11.3c0,5.2-3.9,10.6-16,11.3v-0.7c10.8,0.4,13.6,3.9,14.7,11.2l1.9,10.6l-5.6-3.5l10.2,1.1v3.7
							c-3.3,0.7-4.3,0.9-7.4,0.9c-5.8,0-9.3-1.7-10-7.1l-1.3-8c-0.7-4.6-2.4-6.7-6.5-6.7h-8V138H231.4z"/>
						<linearGradient id="SVGID_14_" gradientUnits="userSpaceOnUse" x1="294.3" y1="163.8" x2="294.3" y2="116.2">
							<stop  offset="0" style="stop-color:#5CB8FF"/>
							<stop  offset="1" style="stop-color:#35387C"/>
						</linearGradient>
						<path class="st14" d="M316,140c0,15.8-10.4,23.8-21.7,23.8s-21.7-7.8-21.7-23.8c0-15.8,10.6-23.8,21.7-23.8S316,124,316,140z
							 M294.2,159.9c6.9,0,9.7-8.6,9.7-19.9s-2.8-19.9-9.7-19.9s-9.7,8.6-9.7,19.9C284.6,151.3,287.2,159.9,294.2,159.9z"/>
						<linearGradient id="SVGID_15_" gradientUnits="userSpaceOnUse" x1="345" y1="162.6" x2="345" y2="117.4">
							<stop  offset="0" style="stop-color:#5CB8FF"/>
							<stop  offset="1" style="stop-color:#35387C"/>
						</linearGradient>
						<path class="st15" d="M324,121.2v-3.7h22.1v3.7l-8.7,1.1h-3L324,121.2z M340.5,147.8l-14.9-30.3h13.2l10.8,23.8l-2.2,0.4
							l11.2-24.2h4.6l-14.9,30.3L340.5,147.8L340.5,147.8z M346.5,157.8l10.4,1.1v3.7h-23.4V159l10.2-1.1h2.8V157.8z M339.2,141.3
							h11.5c0,10.4,0,14.9,0.2,21.2H339C339.2,156.4,339.2,151.7,339.2,141.3z M358.4,122.2l-6.5-1.1v-3.7H366v3.7l-6.1,1.1H358.4z"
							/>
						<linearGradient id="SVGID_16_" gradientUnits="userSpaceOnUse" x1="392.95" y1="163.7" x2="392.95" y2="116.1">
							<stop  offset="0" style="stop-color:#5CB8FF"/>
							<stop  offset="1" style="stop-color:#35387C"/>
						</linearGradient>
						<path class="st16" d="M409.3,156v3.5l-4.6,0.9l2.2-10.8h5.2l-0.2,10.6c-3.7,2-8.6,3.5-14.3,3.5c-13.2,0-23.8-7.8-23.8-23.8
							c0-16.2,11.3-23.8,24.4-23.8c5.2,0,9.3,1.1,13.4,3.3l0.2,10.6h-5.2l-2.4-10.8l4.6,1.1v3.7c-3.3-3-5.9-4.1-9.1-4.1
							c-7.2,0-13.8,5.9-13.8,20.1c0,13.9,6.1,19.9,13.4,19.9C402.6,159.9,405.9,158.4,409.3,156z"/>
						<linearGradient id="SVGID_17_" gradientUnits="userSpaceOnUse" x1="439.9" y1="162.7" x2="439.9" y2="117.5">
							<stop  offset="0" style="stop-color:#5CB8FF"/>
							<stop  offset="1" style="stop-color:#35387C"/>
						</linearGradient>
						<path class="st17" d="M421.4,121.2v-3.7h11v4.6h-1.1L421.4,121.2z M432.5,157.8v4.6h-11v-3.7l10-1.1h0.9v0.2H432.5z
							 M426.8,138.7c0-7.1,0-14.1-0.2-21.2h11.9c-0.2,6.9-0.2,14.1-0.2,21.2v2.2c0,7.4,0,14.5,0.2,21.6h-11.9
							c0.2-6.9,0.2-14.1,0.2-21.2V138.7z M449.3,117.5l5,3.9h-21.7v-3.9h24l0.6,11.9h-5.8L449.3,117.5z M447.6,141.3h-15.1v-4.1
							h15.1V141.3z M458.4,150.8l-0.6,11.9h-25.3v-3.9h23l-5,3.9l2-11.9H458.4z M445.5,138.5l1.1-6.5h3.9v14.7h-3.9l-1.1-6.9V138.5z
							"/>
						<linearGradient id="SVGID_18_" gradientUnits="userSpaceOnUse" x1="483.65" y1="163.9" x2="483.65" y2="116.2">
							<stop  offset="0" style="stop-color:#5CB8FF"/>
							<stop  offset="1" style="stop-color:#35387C"/>
						</linearGradient>
						<path class="st18" d="M489.8,153.2c0-3.5-1.9-5.2-5.9-7.1l-3-1.3c-8.2-3.7-12.8-7.8-12.8-15.4c0-8.2,6.7-13.2,17.1-13.2
							c4.8,0,9.7,1.3,13,3.5l-0.6,9.7h-6.3l-1.7-10.4l5.6,2v3.3c-3.7-2.6-6.3-4.1-9.9-4.1c-3.9,0-7.1,2.4-7.1,6.3
							c0,3.7,2.2,5.6,6.3,7.4l3.2,1.5c8.7,3.9,12.3,7.8,12.3,14.7c0,8.2-6.1,13.8-17.8,13.8c-5.2,0-11-1.1-14.9-3.5l0.4-10.2h6.3
							l1.9,11.2l-5.4-1.7v-3.3c4.3,2.4,7.2,3.5,11.5,3.5C487.2,159.7,489.8,156.9,489.8,153.2z"/>
					</g>
				</g>
			</g>
		</g>
	</g>
</g>
</svg>
